<svg width="5448" height="1603" viewBox="0 0 5448 1603" fill="none" xmlns="http://www.w3.org/2000/svg">
<path d="M1046.08 1571V497.27H1262.88V974.076L1700.87 497.27H1992.37L1588.08 915.482L2014.35 1571H1733.83L1438.66 1067.09L1262.88 1246.54V1571H1046.08ZM2205.07 1571V497.27H2421.87V974.076L2859.85 497.27H3151.36L2747.06 915.482L3173.33 1571H2892.81L2597.65 1067.09L2421.87 1246.54V1571H2205.07ZM3359.66 497.27H3576.46V1078.81C3576.46 1171.1 3579.14 1230.91 3584.51 1258.26C3593.79 1302.2 3615.76 1337.6 3650.43 1364.46C3685.59 1390.82 3733.44 1404.01 3793.98 1404.01C3855.51 1404.01 3901.89 1391.56 3933.14 1366.65C3964.39 1341.26 3983.19 1310.26 3989.54 1273.64C3995.89 1237.02 3999.06 1176.22 3999.06 1091.26V497.27H4215.86V1061.23C4215.86 1190.14 4210 1281.21 4198.28 1334.43C4186.56 1387.65 4164.83 1432.57 4133.1 1469.19C4101.85 1505.81 4059.85 1535.11 4007.12 1557.08C3954.38 1578.57 3885.54 1589.31 3800.58 1589.31C3698.04 1589.31 3620.16 1577.59 3566.93 1554.15C3514.2 1530.23 3472.45 1499.47 3441.69 1461.87C3410.93 1423.78 3390.66 1383.99 3380.9 1342.48C3366.74 1280.96 3359.66 1190.14 3359.66 1070.02V497.27Z" fill="#212121"/>
<path d="M4766.98 474V8.7168H4828.56V474H4766.98ZM5120.8 474V63.624H4967.51V8.7168H5336.31V63.624H5182.38V474H5120.8Z" fill="#606060"/>
</svg>
