<svg width="4536" height="1603" viewBox="0 0 4536 1603" fill="none" xmlns="http://www.w3.org/2000/svg">
<path d="M215.383 1571V497.27H357.473V1029.74L890.676 497.27H1083.3L632.863 932.328L1103.08 1571H915.578L533.254 1027.54L357.473 1198.93V1571H215.383ZM1290.87 1571V497.27H1432.96V1029.74L1966.16 497.27H2158.79L1708.35 932.328L2178.57 1571H1991.07L1608.74 1027.54L1432.96 1198.93V1571H1290.87ZM3076.81 497.27H3218.9V1117.63C3218.9 1225.54 3206.69 1311.23 3182.28 1374.71C3157.86 1438.19 3113.67 1489.95 3049.71 1529.98C2986.23 1569.54 2902.74 1589.31 2799.22 1589.31C2698.63 1589.31 2616.36 1571.98 2552.39 1537.31C2488.43 1502.64 2442.77 1452.59 2415.43 1387.16C2388.09 1321.24 2374.42 1231.4 2374.42 1117.63V497.27H2516.51V1116.9C2516.51 1210.16 2525.05 1279.01 2542.14 1323.44C2559.72 1367.39 2589.5 1401.32 2631.5 1425.25C2673.98 1449.17 2725.73 1461.14 2786.77 1461.14C2891.26 1461.14 2965.72 1437.46 3010.16 1390.09C3054.59 1342.73 3076.81 1251.66 3076.81 1116.9V497.27Z" fill="#212121"/>
<path d="M3854.98 474V8.7168H3916.56V474H3854.98ZM4208.8 474V63.624H4055.51V8.7168H4424.31V63.624H4270.38V474H4208.8Z" fill="#606060"/>
</svg>
