<svg width="5448" height="1603" viewBox="0 0 5448 1603" fill="none" xmlns="http://www.w3.org/2000/svg">
<path d="M1127.38 1571V497.27H1269.47V1029.74L1802.68 497.27H1995.3L1544.86 932.328L2015.08 1571H1827.58L1445.25 1027.54L1269.47 1198.93V1571H1127.38ZM2202.87 1571V497.27H2344.96V1029.74L2878.16 497.27H3070.79L2620.35 932.328L3090.57 1571H2903.07L2520.74 1027.54L2344.96 1198.93V1571H2202.87ZM3988.81 497.27H4130.9V1117.63C4130.9 1225.54 4118.69 1311.23 4094.28 1374.71C4069.86 1438.19 4025.67 1489.95 3961.71 1529.98C3898.23 1569.54 3814.74 1589.31 3711.22 1589.31C3610.63 1589.31 3528.36 1571.98 3464.39 1537.31C3400.43 1502.64 3354.78 1452.59 3327.43 1387.16C3300.09 1321.24 3286.42 1231.4 3286.42 1117.63V497.27H3428.51V1116.9C3428.51 1210.16 3437.05 1279.01 3454.14 1323.44C3471.72 1367.39 3501.5 1401.32 3543.5 1425.25C3585.98 1449.17 3637.73 1461.14 3698.77 1461.14C3803.26 1461.14 3877.72 1437.46 3922.16 1390.09C3966.59 1342.73 3988.81 1251.66 3988.81 1116.9V497.27Z" fill="#212121"/>
<path d="M4766.98 474V8.7168H4828.56V474H4766.98ZM5120.8 474V63.624H4967.51V8.7168H5336.31V63.624H5182.38V474H5120.8Z" fill="#606060"/>
</svg>
