<svg id="visual" viewBox="0 0 900 600" width="900" height="600" xmlns="http://www.w3.org/2000/svg" xmlns:xlink="http://www.w3.org/1999/xlink" version="1.1"><rect x="0" y="0" width="900" height="600" fill="#33A474"></rect><path d="M0 431L21.5 436.2C43 441.3 86 451.7 128.8 440.7C171.7 429.7 214.3 397.3 257.2 380.7C300 364 343 363 385.8 368.3C428.7 373.7 471.3 385.3 514.2 397C557 408.7 600 420.3 642.8 408.5C685.7 396.7 728.3 361.3 771.2 361.3C814 361.3 857 396.7 878.5 414.3L900 432L900 601L878.5 601C857 601 814 601 771.2 601C728.3 601 685.7 601 642.8 601C600 601 557 601 514.2 601C471.3 601 428.7 601 385.8 601C343 601 300 601 257.2 601C214.3 601 171.7 601 128.8 601C86 601 43 601 21.5 601L0 601Z" fill="#F9F9F9" stroke-linecap="round" stroke-linejoin="miter"></path></svg>